<?xml version="1.0" encoding="utf-8"?>
<!-- Generator: Adobe Illustrator 19.0.0, SVG Export Plug-In . SVG Version: 6.00 Build 0)  -->
<svg version="1.1" id="Layer_1" xmlns="http://www.w3.org/2000/svg" xmlns:xlink="http://www.w3.org/1999/xlink" x="0px" y="0px"
	 viewBox="0 0 100 100" style="enable-background:new 0 0 100 100;" xml:space="preserve">
<style type="text/css">
	.st0{stroke:#000000;stroke-miterlimit:2;}
	.st1{fill:#FFFFFF;}
	.st2{fill:#ED1C24;stroke:#ED1C24;stroke-width:0.25;stroke-miterlimit:2;}
</style>
<rect id="XMLID_6_" y="0" class="st0" width="100" height="100"/>
<g>
	<g id="XMLID_5_">
		<path id="XMLID_8_" class="st1" d="M17.3,41.3c0.9,0,1.7,0.1,2.4,0.3c0.7,0.2,1.2,0.5,1.7,0.9c0.4,0.4,0.8,0.9,1,1.5
			c0.2,0.6,0.3,1.2,0.3,1.9c0,0.7-0.1,1.3-0.3,1.9c-0.2,0.6-0.6,1.1-1,1.5c-0.4,0.4-1,0.7-1.7,1c-0.7,0.2-1.4,0.3-2.3,0.3H15v5.6
			h-1.9V41.3H17.3z M17.3,49c0.6,0,1-0.1,1.5-0.2c0.4-0.2,0.8-0.4,1.1-0.6c0.3-0.3,0.5-0.6,0.7-1c0.1-0.4,0.2-0.8,0.2-1.3
			c0-0.9-0.3-1.7-0.8-2.2c-0.6-0.5-1.4-0.8-2.6-0.8H15V49H17.3z"/>
		<path id="XMLID_11_" class="st1" d="M34,54.5c0.6,0,1.1-0.1,1.6-0.3s0.9-0.5,1.2-0.9c0.3-0.4,0.6-0.8,0.7-1.3
			c0.2-0.5,0.3-1.1,0.3-1.7v-9h1.9v9c0,0.9-0.1,1.7-0.4,2.4c-0.3,0.7-0.6,1.4-1.1,1.9s-1.1,1-1.8,1.3c-0.7,0.3-1.5,0.5-2.4,0.5
			s-1.7-0.2-2.4-0.5c-0.7-0.3-1.3-0.7-1.8-1.3c-0.5-0.5-0.9-1.2-1.1-1.9c-0.3-0.7-0.4-1.5-0.4-2.4v-9h1.9v9c0,0.6,0.1,1.2,0.3,1.7
			c0.2,0.5,0.4,1,0.7,1.3c0.3,0.4,0.7,0.7,1.2,0.9C32.9,54.4,33.4,54.5,34,54.5z"/>
		<path id="XMLID_13_" class="st1" d="M54.7,54.4v1.7h-8.1V41.3h1.9v13.2H54.7z"/>
		<path id="XMLID_15_" class="st1" d="M67.6,43.6c-0.1,0.1-0.1,0.2-0.2,0.2c-0.1,0.1-0.2,0.1-0.3,0.1c-0.1,0-0.2-0.1-0.4-0.2
			s-0.3-0.2-0.6-0.4s-0.5-0.3-0.8-0.4c-0.3-0.1-0.7-0.2-1.2-0.2c-0.4,0-0.8,0.1-1.1,0.2c-0.3,0.1-0.6,0.3-0.8,0.5
			c-0.2,0.2-0.4,0.5-0.5,0.7c-0.1,0.3-0.2,0.6-0.2,0.9c0,0.4,0.1,0.8,0.3,1s0.5,0.5,0.8,0.7c0.3,0.2,0.7,0.4,1.1,0.5
			c0.4,0.1,0.8,0.3,1.3,0.4c0.4,0.2,0.8,0.3,1.3,0.5c0.4,0.2,0.8,0.4,1.1,0.7c0.3,0.3,0.6,0.6,0.8,1.1c0.2,0.4,0.3,0.9,0.3,1.6
			c0,0.6-0.1,1.3-0.3,1.8c-0.2,0.6-0.5,1.1-0.9,1.5c-0.4,0.4-0.9,0.8-1.5,1c-0.6,0.2-1.3,0.4-2,0.4c-0.9,0-1.8-0.2-2.5-0.5
			s-1.4-0.8-1.9-1.4l0.6-1c0.1-0.1,0.1-0.1,0.2-0.2s0.2-0.1,0.3-0.1c0.1,0,0.2,0,0.3,0.1s0.2,0.2,0.4,0.3c0.1,0.1,0.3,0.2,0.5,0.4
			c0.2,0.1,0.4,0.3,0.6,0.4c0.2,0.1,0.5,0.2,0.8,0.3c0.3,0.1,0.6,0.1,1,0.1c0.5,0,0.9-0.1,1.2-0.2c0.4-0.1,0.7-0.3,0.9-0.6
			c0.2-0.2,0.4-0.5,0.6-0.9s0.2-0.7,0.2-1.1c0-0.4-0.1-0.8-0.3-1.1c-0.2-0.3-0.5-0.5-0.8-0.7c-0.3-0.2-0.7-0.4-1.1-0.5
			s-0.8-0.3-1.3-0.4c-0.4-0.1-0.8-0.3-1.3-0.5s-0.8-0.4-1.1-0.7c-0.3-0.3-0.6-0.7-0.8-1.1c-0.2-0.4-0.3-1-0.3-1.7
			c0-0.5,0.1-1,0.3-1.5c0.2-0.5,0.5-0.9,0.9-1.3c0.4-0.4,0.8-0.7,1.4-0.9s1.2-0.3,1.9-0.3c0.8,0,1.5,0.1,2.2,0.4
			c0.7,0.3,1.2,0.6,1.7,1.1L67.6,43.6z"/>
		<path id="XMLID_17_" class="st1" d="M85.9,56.1h-1.5c-0.2,0-0.3,0-0.4-0.1c-0.1-0.1-0.2-0.2-0.2-0.3l-1.3-3.6H76l-1.3,3.6
			c0,0.1-0.1,0.2-0.2,0.3c-0.1,0.1-0.3,0.1-0.4,0.1h-1.5l5.7-14.9h1.9L85.9,56.1z M81.9,50.6l-2.2-6c-0.1-0.2-0.1-0.4-0.2-0.6
			s-0.1-0.5-0.2-0.8c-0.1,0.6-0.3,1-0.4,1.4l-2.2,6H81.9z"/>
	</g>
	<line id="XMLID_4_" class="st2" x1="72" y1="41.2" x2="72" y2="48.1"/>
	<line id="XMLID_3_" class="st2" x1="43.3" y1="41.2" x2="43.3" y2="48.1"/>
	<line id="XMLID_2_" class="st2" x1="25.3" y1="49.6" x2="25.3" y2="56.5"/>
	<line id="XMLID_1_" class="st2" x1="57" y1="49.6" x2="57" y2="56.5"/>
</g>
<g id="XMLID_7_">
</g>
<g id="XMLID_20_">
</g>
<g id="XMLID_21_">
</g>
<g id="XMLID_22_">
</g>
<g id="XMLID_23_">
</g>
<g id="XMLID_24_">
</g>
</svg>
